<svg width="32" height="32" viewBox="0 0 32 32" fill="none" xmlns="http://www.w3.org/2000/svg">
<path d="M4 29.3333H28" stroke="#FF6B00" stroke-width="1.5" stroke-linecap="round" stroke-linejoin="round"/>
<path d="M7.46663 11.1733H5.33333C4.6 11.1733 4 11.7733 4 12.5067V24C4 24.7333 4.6 25.3333 5.33333 25.3333H7.46663C8.19997 25.3333 8.79997 24.7333 8.79997 24V12.5067C8.79997 11.7733 8.19997 11.1733 7.46663 11.1733Z" stroke="#FF6B00" stroke-width="1.5" stroke-linecap="round" stroke-linejoin="round"/>
<path d="M17.0666 6.92001H14.9333C14.2 6.92001 13.6 7.52001 13.6 8.25335V24C13.6 24.7333 14.2 25.3333 14.9333 25.3333H17.0666C17.7999 25.3333 18.3999 24.7333 18.3999 24V8.25335C18.3999 7.52001 17.7999 6.92001 17.0666 6.92001Z" stroke="#FF6B00" stroke-width="1.5" stroke-linecap="round" stroke-linejoin="round"/>
<path d="M26.6667 2.66667H24.5334C23.8001 2.66667 23.2001 3.26667 23.2001 4.00001V24C23.2001 24.7333 23.8001 25.3333 24.5334 25.3333H26.6667C27.4 25.3333 28 24.7333 28 24V4.00001C28 3.26667 27.4 2.66667 26.6667 2.66667Z" stroke="#FF6B00" stroke-width="1.5" stroke-linecap="round" stroke-linejoin="round"/>
</svg>
