<svg width="32" height="32" viewBox="0 0 32 32" fill="none" xmlns="http://www.w3.org/2000/svg">
<path d="M29.24 9.01343L24.7466 27.0535C24.4266 28.4001 23.2267 29.3334 21.84 29.3334H4.31997C2.30664 29.3334 0.866657 27.36 1.46666 25.4267L7.07998 7.40015C7.46665 6.14681 8.62666 5.28003 9.93333 5.28003H26.3333C27.6 5.28003 28.6533 6.05337 29.0933 7.12004C29.3467 7.69337 29.4 8.34676 29.24 9.01343Z" stroke="#222222" stroke-width="1.5" stroke-miterlimit="10"/>
<path d="M21.3333 29.3333H27.7066C29.4266 29.3333 30.7733 27.88 30.6533 26.16L29.3333 8" stroke="#222222" stroke-width="1.5" stroke-miterlimit="10" stroke-linecap="round" stroke-linejoin="round"/>
<path d="M12.9067 8.50676L14.2934 2.74683" stroke="#222222" stroke-width="1.5" stroke-miterlimit="10" stroke-linecap="round" stroke-linejoin="round"/>
<path d="M21.84 8.52002L23.0934 2.7334" stroke="#222222" stroke-width="1.5" stroke-miterlimit="10" stroke-linecap="round" stroke-linejoin="round"/>
<path d="M10.2667 16H20.9333" stroke="#222222" stroke-width="1.5" stroke-miterlimit="10" stroke-linecap="round" stroke-linejoin="round"/>
<path d="M8.93335 21.3333H19.6" stroke="#222222" stroke-width="1.5" stroke-miterlimit="10" stroke-linecap="round" stroke-linejoin="round"/>
</svg>
