<svg width="34" height="40" viewBox="0 0 34 40" fill="none" xmlns="http://www.w3.org/2000/svg">
<g clip-path="url(#clip0_21_565)">
<path d="M1.69165 9.52906L16.3333 0V9.20662L1.69165 9.52906Z" fill="#FF3A3A"/>
<path d="M17.6666 9.20662V0L32.3083 9.52906L17.6666 9.20662Z" fill="#FF3A3A"/>
<path d="M18.175 10.5728L33.7167 10.9207L27.7834 27.2889L18.175 10.5728Z" fill="#FF3A3A"/>
<path d="M34 14.0603V28.757L28.8417 28.2733L34 14.0603Z" fill="#FF3A3A"/>
<path d="M0.283325 10.9207L15.825 10.5728L6.24166 27.2465L0.283325 10.9207Z" fill="#FF3A3A"/>
<path d="M0 14.0603L5.15833 28.2733L0 28.757V14.0603Z" fill="#FF3A3A"/>
<path d="M7.2417 28.1968H26.7584L17 11.2091L7.2417 28.1968Z" fill="#FF3A3A"/>
<path d="M7.59998 29.5545H26.4L17 40L7.59998 29.5545Z" fill="#FF3A3A"/>
<path d="M5.81671 29.58L1.33337 29.9957L13.0667 37.6411L5.81671 29.58Z" fill="#FF3A3A"/>
<path d="M28.1834 29.58L32.6667 29.9957L20.9333 37.6411L28.1834 29.58Z" fill="#FF3A3A"/>
</g>
<defs>
<clipPath id="clip0_21_565">
<rect width="34" height="40" fill="white"/>
</clipPath>
</defs>
</svg>
