<svg width="32" height="32" viewBox="0 0 32 32" fill="none" xmlns="http://www.w3.org/2000/svg">
<path d="M13.3334 15.9999C13.3334 16.7072 13.6143 17.3854 14.1144 17.8855C14.6145 18.3856 15.2928 18.6666 16 18.6666C16.7073 18.6666 17.3856 18.3856 17.8857 17.8855C18.3858 17.3854 18.6667 16.7072 18.6667 15.9999C18.6667 15.2927 18.3858 14.6144 17.8857 14.1143C17.3856 13.6142 16.7073 13.3333 16 13.3333C15.2928 13.3333 14.6145 13.6142 14.1144 14.1143C13.6143 14.6144 13.3334 15.2927 13.3334 15.9999ZM13.3334 7.99992C13.3334 8.70716 13.6143 9.38544 14.1144 9.88554C14.6145 10.3856 15.2928 10.6666 16 10.6666C16.7073 10.6666 17.3856 10.3856 17.8857 9.88554C18.3858 9.38544 18.6667 8.70716 18.6667 7.99992C18.6667 7.29267 18.3858 6.6144 17.8857 6.1143C17.3856 5.6142 16.7073 5.33325 16 5.33325C15.2928 5.33325 14.6145 5.6142 14.1144 6.1143C13.6143 6.6144 13.3334 7.29267 13.3334 7.99992V7.99992ZM13.3334 23.9999C13.3334 24.7072 13.6143 25.3854 14.1144 25.8855C14.6145 26.3856 15.2928 26.6666 16 26.6666C16.7073 26.6666 17.3856 26.3856 17.8857 25.8855C18.3858 25.3854 18.6667 24.7072 18.6667 23.9999C18.6667 23.2927 18.3858 22.6144 17.8857 22.1143C17.3856 21.6142 16.7073 21.3333 16 21.3333C15.2928 21.3333 14.6145 21.6142 14.1144 22.1143C13.6143 22.6144 13.3334 23.2927 13.3334 23.9999Z" fill="white"/>
</svg>
