<?xml version="1.0" standalone="no"?>
<!DOCTYPE svg PUBLIC "-//W3C//DTD SVG 20010904//EN"
 "http://www.w3.org/TR/2001/REC-SVG-20010904/DTD/svg10.dtd">
<svg version="1.0" xmlns="http://www.w3.org/2000/svg"
 width="194.000000pt" height="194.000000pt" viewBox="0 0 194.000000 194.000000"
 preserveAspectRatio="xMidYMid meet">
<metadata>
Created by potrace 1.14, written by Peter Selinger 2001-2017
</metadata>
<g transform="translate(0.000000,194.000000) scale(0.100000,-0.100000)"
fill="#000000" stroke="none">
<path d="M691 1498 l-255 -163 45 -3 c24 -2 140 -1 257 3 l212 7 0 159 c0 87
-1 159 -3 159 -1 0 -117 -73 -256 -162z"/>
<path d="M990 1502 l0 -160 213 -7 c116 -4 232 -5 256 -3 l44 3 -234 149
c-129 82 -244 156 -256 164 l-23 14 0 -160z"/>
<path d="M467 1283 c-49 -2 -87 -7 -85 -12 2 -4 48 -130 103 -279 55 -150 102
-272 105 -272 6 0 330 554 330 564 0 6 -277 5 -453 -1z"/>
<path d="M1178 1005 c91 -157 169 -285 172 -285 3 0 51 125 107 278 l101 277
-96 6 c-54 4 -177 7 -274 8 l-176 1 166 -285z"/>
<path d="M799 979 c-90 -155 -165 -286 -167 -290 -2 -5 148 -9 337 -9 188 0
341 2 341 5 0 12 -333 575 -340 575 -4 0 -81 -127 -171 -281z"/>
<path d="M371 911 l-1 -254 46 7 c26 3 61 6 78 6 62 0 61 2 -23 231 -44 118
-84 225 -90 239 -7 18 -10 -46 -10 -229z"/>
<path d="M1478 922 c-55 -149 -83 -239 -77 -243 12 -7 160 -21 166 -16 2 2 2
115 1 250 l-3 246 -87 -237z"/>
<path d="M457 621 l-37 -6 186 -120 c103 -66 194 -124 203 -129 18 -10 7 3
-133 157 -108 118 -105 116 -219 98z"/>
<path d="M802 453 c89 -98 165 -178 168 -178 3 0 79 80 168 178 l163 177 -331
0 -331 0 163 -177z"/>
<path d="M1259 518 c-135 -148 -148 -163 -128 -152 9 5 100 63 204 129 l187
120 -43 7 c-111 17 -106 19 -220 -104z"/>
</g>
</svg>
